<mxfile host="app.diagrams.net" modified="2023-07-04T06:17:30.204Z" agent="Mozilla/5.0 (Windows NT 10.0; Win64; x64) AppleWebKit/537.36 (KHTML, like Gecko) Chrome/114.0.0.0 Safari/537.36" etag="9CSjz1DnogVsPZuXQL1G" version="21.5.2" type="device">
  <diagram id="O6bztyhdW431hS32yqZ9" name="Page-1">
    <mxGraphModel dx="2049" dy="1126" grid="1" gridSize="1" guides="1" tooltips="1" connect="1" arrows="1" fold="1" page="1" pageScale="1" pageWidth="1654" pageHeight="1169" math="0" shadow="0">
      <root>
        <mxCell id="0" />
        <mxCell id="1" parent="0" />
        <mxCell id="bx_xQ_fpkAt0uHbZaHTZ-5" value="" style="rounded=0;whiteSpace=wrap;html=1;" parent="1" vertex="1">
          <mxGeometry x="34" y="34" width="1473" height="765" as="geometry" />
        </mxCell>
        <mxCell id="bx_xQ_fpkAt0uHbZaHTZ-6" value="" style="rounded=0;whiteSpace=wrap;html=1;" parent="1" vertex="1">
          <mxGeometry x="890" y="358.5" width="130" height="116" as="geometry" />
        </mxCell>
        <mxCell id="bx_xQ_fpkAt0uHbZaHTZ-7" value="" style="rounded=0;whiteSpace=wrap;html=1;rotation=90;" parent="1" vertex="1">
          <mxGeometry x="1071" y="386.5" width="120" height="60" as="geometry" />
        </mxCell>
        <mxCell id="bx_xQ_fpkAt0uHbZaHTZ-8" value="" style="rounded=0;whiteSpace=wrap;html=1;" parent="1" vertex="1">
          <mxGeometry x="1242" y="358.5" width="130" height="116" as="geometry" />
        </mxCell>
        <mxCell id="bx_xQ_fpkAt0uHbZaHTZ-9" value="" style="rounded=0;whiteSpace=wrap;html=1;" parent="1" vertex="1">
          <mxGeometry x="71" y="13" width="160" height="60" as="geometry" />
        </mxCell>
        <mxCell id="bx_xQ_fpkAt0uHbZaHTZ-10" value="" style="rounded=0;whiteSpace=wrap;html=1;" parent="1" vertex="1">
          <mxGeometry x="248" y="13" width="160" height="60" as="geometry" />
        </mxCell>
        <mxCell id="4yg61uMLdK6VvaynBHGP-2" value="" style="rounded=0;whiteSpace=wrap;html=1;" vertex="1" parent="1">
          <mxGeometry x="425" y="13" width="160" height="60" as="geometry" />
        </mxCell>
        <mxCell id="4yg61uMLdK6VvaynBHGP-3" value="" style="rounded=0;whiteSpace=wrap;html=1;" vertex="1" parent="1">
          <mxGeometry x="602" y="13" width="160" height="60" as="geometry" />
        </mxCell>
        <mxCell id="4yg61uMLdK6VvaynBHGP-4" value="" style="rounded=0;whiteSpace=wrap;html=1;" vertex="1" parent="1">
          <mxGeometry x="1310" y="13" width="160" height="60" as="geometry" />
        </mxCell>
        <mxCell id="4yg61uMLdK6VvaynBHGP-5" value="" style="rounded=0;whiteSpace=wrap;html=1;" vertex="1" parent="1">
          <mxGeometry x="1133" y="13" width="160" height="60" as="geometry" />
        </mxCell>
        <mxCell id="4yg61uMLdK6VvaynBHGP-10" value="" style="rounded=0;whiteSpace=wrap;html=1;" vertex="1" parent="1">
          <mxGeometry x="779" y="13" width="160" height="60" as="geometry" />
        </mxCell>
        <mxCell id="4yg61uMLdK6VvaynBHGP-11" value="" style="rounded=0;whiteSpace=wrap;html=1;" vertex="1" parent="1">
          <mxGeometry x="956" y="13" width="160" height="60" as="geometry" />
        </mxCell>
        <mxCell id="4yg61uMLdK6VvaynBHGP-12" value="" style="rounded=0;whiteSpace=wrap;html=1;" vertex="1" parent="1">
          <mxGeometry x="71" y="761" width="160" height="60" as="geometry" />
        </mxCell>
        <mxCell id="4yg61uMLdK6VvaynBHGP-13" value="" style="rounded=0;whiteSpace=wrap;html=1;" vertex="1" parent="1">
          <mxGeometry x="248" y="761" width="160" height="60" as="geometry" />
        </mxCell>
        <mxCell id="4yg61uMLdK6VvaynBHGP-14" value="" style="rounded=0;whiteSpace=wrap;html=1;" vertex="1" parent="1">
          <mxGeometry x="425" y="761" width="160" height="60" as="geometry" />
        </mxCell>
        <mxCell id="4yg61uMLdK6VvaynBHGP-15" value="" style="rounded=0;whiteSpace=wrap;html=1;" vertex="1" parent="1">
          <mxGeometry x="602" y="761" width="160" height="60" as="geometry" />
        </mxCell>
        <mxCell id="4yg61uMLdK6VvaynBHGP-16" value="" style="rounded=0;whiteSpace=wrap;html=1;" vertex="1" parent="1">
          <mxGeometry x="1310" y="761" width="160" height="60" as="geometry" />
        </mxCell>
        <mxCell id="4yg61uMLdK6VvaynBHGP-17" value="" style="rounded=0;whiteSpace=wrap;html=1;" vertex="1" parent="1">
          <mxGeometry x="1133" y="761" width="160" height="60" as="geometry" />
        </mxCell>
        <mxCell id="4yg61uMLdK6VvaynBHGP-18" value="" style="rounded=0;whiteSpace=wrap;html=1;" vertex="1" parent="1">
          <mxGeometry x="779" y="761" width="160" height="60" as="geometry" />
        </mxCell>
        <mxCell id="4yg61uMLdK6VvaynBHGP-19" value="" style="rounded=0;whiteSpace=wrap;html=1;" vertex="1" parent="1">
          <mxGeometry x="956" y="761" width="160" height="60" as="geometry" />
        </mxCell>
        <mxCell id="4yg61uMLdK6VvaynBHGP-20" value="" style="rounded=0;whiteSpace=wrap;html=1;" vertex="1" parent="1">
          <mxGeometry x="178" y="358.5" width="130" height="116" as="geometry" />
        </mxCell>
        <mxCell id="4yg61uMLdK6VvaynBHGP-21" value="" style="rounded=0;whiteSpace=wrap;html=1;rotation=90;" vertex="1" parent="1">
          <mxGeometry x="359" y="386.5" width="120" height="60" as="geometry" />
        </mxCell>
        <mxCell id="4yg61uMLdK6VvaynBHGP-22" value="" style="rounded=0;whiteSpace=wrap;html=1;" vertex="1" parent="1">
          <mxGeometry x="530" y="358.5" width="130" height="116" as="geometry" />
        </mxCell>
      </root>
    </mxGraphModel>
  </diagram>
</mxfile>
